HIERARCHY
ROOT Hips
{
 OFFSET 0.000000 0.000000 0.000000
 CHANNELS 6 Xposition Yposition Zposition Yrotation Xrotation Zrotation
 JOINT Chest
 {
  OFFSET 0.000000 9.585900 0.002600
  CHANNELS 3 Yrotation Xrotation Zrotation
  JOINT Chest2
  {
   OFFSET 0.000000 9.601200 -0.005300
   CHANNELS 3 Yrotation Xrotation Zrotation
   JOINT Chest3
   {
    OFFSET 0.000000 9.561800 0.000000
    CHANNELS 3 Yrotation Xrotation Zrotation
    JOINT Chest4
    {
     OFFSET 0.000000 9.552100 0.000000
     CHANNELS 3 Yrotation Xrotation Zrotation
     JOINT Neck
     {
      OFFSET 0.000000 14.453000 0.000000
      CHANNELS 3 Yrotation Xrotation Zrotation
      JOINT Head
      {
       OFFSET 0.000000 8.936500 -0.011300
       CHANNELS 3 Yrotation Xrotation Zrotation
       End Site
       {
        OFFSET 0.000000 17.073600 -0.006000
       }
      }
     }
     JOINT RightCollar
     {
      OFFSET -2.921100 9.558500 0.000000
      CHANNELS 3 Yrotation Xrotation Zrotation
      JOINT RightShoulder
      {
       OFFSET -13.519700 0.000000 0.000000
       CHANNELS 3 Yrotation Xrotation Zrotation
       JOINT RightElbow
       {
        OFFSET 0.000000 -29.696600 0.000000
        CHANNELS 3 Yrotation Xrotation Zrotation
        JOINT RightWrist
        {
         OFFSET 0.000000 -24.004700 0.000000
         CHANNELS 3 Yrotation Xrotation Zrotation
         End Site
         {
          OFFSET 0.000000 -17.728500 0.000000
         }
        }
       }
      }
     }
     JOINT LeftCollar
     {
      OFFSET 2.921100 9.558500 0.000000
      CHANNELS 3 Yrotation Xrotation Zrotation
      JOINT LeftShoulder
      {
       OFFSET 13.519700 0.000000 0.000000
       CHANNELS 3 Yrotation Xrotation Zrotation
       JOINT LeftElbow
       {
        OFFSET 0.000000 -29.696600 0.000000
        CHANNELS 3 Yrotation Xrotation Zrotation
        JOINT LeftWrist
        {
         OFFSET 0.000000 -24.004700 0.000000
         CHANNELS 3 Yrotation Xrotation Zrotation
         End Site
         {
          OFFSET 0.000000 -17.728500 0.000000
         }
        }
       }
      }
     }
    }
   }
  }
 }
 JOINT RightHip
 {
  OFFSET -7.771700 -0.012900 -0.001300
  CHANNELS 3 Yrotation Xrotation Zrotation
  JOINT RightKnee
  {
   OFFSET 0.000000 -40.869800 0.001200
   CHANNELS 3 Yrotation Xrotation Zrotation
   JOINT RightAnkle
   {
    OFFSET 0.000000 -39.717900 0.002100
    CHANNELS 3 Yrotation Xrotation Zrotation
    JOINT RightToe
    {
     OFFSET 0.000000 -4.965400 11.033500
     CHANNELS 3 Yrotation Xrotation Zrotation
     End Site
     {
      OFFSET 0.000000 -1.423100 5.872300
     }
    }
   }
  }
 }
 JOINT LeftHip
 {
  OFFSET 7.771700 -0.012900 -0.001300
  CHANNELS 3 Yrotation Xrotation Zrotation
  JOINT LeftKnee
  {
   OFFSET 0.000000 -40.869800 0.001200
   CHANNELS 3 Yrotation Xrotation Zrotation
   JOINT LeftAnkle
   {
    OFFSET 0.000000 -39.717900 0.002100
    CHANNELS 3 Yrotation Xrotation Zrotation
    JOINT LeftToe
    {
     OFFSET 0.000000 -4.965400 11.033500
     CHANNELS 3 Yrotation Xrotation Zrotation
     End Site
     {
      OFFSET 0.000000 -1.423100 5.872300
     }
    }
   }
  }
 }
}
MOTION
Frames: 15
Frame Time: 0.008333
-5.018222 49.815069 36.138675 174.741322 -33.281151 -6.925696 4.038067 18.523569 6.471961 0.425702 2.239232 0.591752 0.713563 3.683804 0.983692 3.650022 15.932042 4.720969 -1.150379 17.494573 2.487581 -2.871347 -3.044838 4.987594 4.321585 -4.228596 -6.047919 18.426662 -17.138517 -6.768476 53.722649 -39.714093 -49.521783 6.717387 8.135140 -15.699274 -10.674569 -6.004991 -0.768329 -10.251220 -19.703176 2.879148 -55.793529 -42.120428 41.280341 0.158287 0.164206 1.024558 1.032030 -47.960585 8.301584 -79.058650 80.126304 -67.435378 -0.435202 -7.830236 -3.363934 -0.098649 1.100068 -0.079990 -12.614549 -51.722421 16.371864 162.792202 85.321467 153.729087 -4.139930 -9.374141 7.105976 -0.205805 -0.461409 -0.234396
-5.010015 49.828595 36.141409 174.712529 -33.283852 -6.859472 4.107281 18.623613 6.488143 0.429974 2.255087 0.594334 0.720447 3.708576 0.987720 3.670146 15.978887 4.725764 -1.224469 17.383556 2.450809 -2.994063 -3.152961 4.935633 4.221477 -4.282748 -6.121297 18.345251 -17.100526 -6.747036 53.842839 -39.899956 -49.600212 6.682076 8.095039 -15.808667 -10.646539 -6.005356 -0.723232 -10.217188 -19.729288 2.818812 -55.886784 -42.280481 41.461192 0.178792 0.136524 0.981056 1.018036 -47.968668 8.287181 -79.167264 80.141114 -67.575961 -0.442417 -7.826971 -3.393708 -0.091000 1.072981 -0.064538 -12.490873 -51.674396 16.321257 164.222734 85.433502 155.148058 -4.165738 -9.513807 7.198762 -0.126634 -0.341676 -0.246919
-5.009361 49.840721 36.144702 174.689253 -33.282266 -6.750334 4.158614 18.726999 6.459315 0.433703 2.272568 0.597409 0.726453 3.735865 0.992505 3.685508 16.030889 4.732120 -1.288753 17.279148 2.408005 -3.126239 -3.531061 4.883246 4.140199 -4.417356 -6.191891 18.240437 -16.960627 -6.698942 53.999573 -40.109870 -49.729786 6.649603 8.056181 -15.924423 -10.620306 -6.008331 -0.689856 -10.177093 -19.737819 2.764217 -55.996444 -42.470430 41.675067 0.208214 0.091025 0.954345 1.051143 -47.980563 8.200389 -79.276160 80.158660 -67.718628 -0.456712 -7.834284 -3.423947 -0.071153 1.063172 -0.055266 -12.320231 -51.645992 16.192394 165.489041 85.530386 156.369324 -4.178302 -9.656834 7.312867 -0.075850 -0.222837 -0.242272
-5.004806 49.857507 36.142368 174.607225 -33.336156 -6.628864 4.274977 18.881280 6.459261 0.436532 2.290672 0.600661 0.731009 3.764174 0.997561 3.694354 16.085312 4.738451 -1.350355 17.107144 2.362780 -3.221399 -4.003821 4.834302 4.068097 -4.459271 -6.260149 18.129801 -16.877440 -6.681470 54.179641 -40.347759 -49.905642 6.621206 8.016148 -16.047846 -10.597084 -6.016187 -0.672514 -10.122219 -19.716525 2.714680 -56.139992 -42.689055 41.935465 0.242154 0.025670 0.951822 1.117573 -47.939004 8.148031 -79.327980 80.170460 -67.815894 -0.442034 -7.835877 -3.435953 -0.082319 1.055544 -0.057142 -12.105050 -51.547411 16.072901 166.526961 85.614441 157.369816 -4.202954 -9.842166 7.368130 -0.027375 -0.084246 -0.185017
-5.002353 49.865508 36.153409 174.640971 -33.282535 -6.566611 4.272381 18.942537 6.446479 0.438625 2.308767 0.603812 0.734310 3.792527 1.002446 3.697781 16.140327 4.743540 -1.373705 16.822343 2.320013 -3.327516 -4.508781 4.772105 4.033066 -4.503680 -6.318356 17.996201 -16.754581 -6.670523 54.383564 -40.615009 -50.118582 6.594229 7.981396 -16.187274 -10.574856 -6.029702 -0.673123 -10.042081 -19.660948 2.668289 -56.327965 -42.936535 42.243190 0.274316 -0.053102 0.981538 1.082435 -47.991573 8.085622 -79.365514 80.184014 -67.899161 -0.427744 -7.842167 -3.447368 -0.091951 1.049274 -0.058097 -12.044998 -51.599797 15.979873 166.898011 85.669704 157.696672 -4.184951 -9.857795 7.493518 -0.033995 -0.073460 -0.204676
-4.991553 49.874501 36.165970 174.659784 -33.226739 -6.548880 4.291787 18.997867 6.487698 0.440020 2.326747 0.606725 0.736528 3.820729 1.006994 3.696254 16.195646 4.746792 -1.403924 16.493157 2.266101 -3.395062 -5.073270 4.692764 4.038490 -4.587905 -6.374736 17.835376 -16.565034 -6.645310 54.611377 -40.903165 -50.361051 6.562398 7.953032 -16.342958 -10.556709 -6.051454 -0.692242 -9.932865 -19.573339 2.626585 -56.560039 -43.206773 42.591782 0.302260 -0.144487 1.043917 1.046820 -48.046879 8.070558 -79.378521 80.192309 -67.920604 -0.397503 -7.886983 -3.461587 -0.116514 1.085760 -0.066355 -12.037312 -51.650806 15.967379 167.054208 85.707387 157.836387 -4.195715 -9.867788 7.579894 -0.025055 -0.063052 -0.223936
-4.985608 49.884534 36.176141 174.675862 -33.177098 -6.502190 4.295732 19.061949 6.498272 0.440578 2.344362 0.609312 0.737439 3.848302 1.011009 3.689139 16.250493 4.747652 -1.427845 16.160165 2.203521 -3.433538 -5.693119 4.599914 4.082536 -4.682998 -6.427884 17.655664 -16.340197 -6.614284 54.853145 -41.197397 -50.626701 6.521829 7.922553 -16.509442 -10.547395 -6.080259 -0.727181 -9.788525 -19.457852 2.590048 -56.841908 -43.490037 42.980834 0.331407 -0.242887 1.131832 1.044551 -48.094567 8.012133 -79.380863 80.204763 -67.928526 -0.395124 -7.895651 -3.485396 -0.119397 1.076282 -0.062586 -11.987918 -51.688541 15.890056 166.909988 85.751484 157.676143 -4.191939 -9.891064 7.676410 -0.036107 -0.024603 -0.290023
-4.979272 49.895986 36.185080 174.672389 -33.129730 -6.450228 4.309348 19.126322 6.508788 0.440717 2.361244 0.611555 0.737591 3.874689 1.014472 3.679475 16.303294 4.746771 -1.442396 15.818163 2.137650 -3.453728 -6.330168 4.498095 4.157290 -4.789246 -6.475121 17.467567 -16.084357 -6.575580 55.097774 -41.490186 -50.908065 6.479967 7.885859 -16.682786 -10.551701 -6.114731 -0.772261 -9.608778 -19.317699 2.557867 -57.169261 -43.775916 43.401644 0.366158 -0.345033 1.243416 1.017621 -48.144875 7.994312 -79.384554 80.209151 -67.967470 -0.394553 -7.881439 -3.502603 -0.116252 1.057330 -0.062731 -11.895830 -51.730032 15.814280 166.679459 85.790493 157.443002 -4.219400 -9.883861 7.727121 -0.036361 -0.041672 -0.260174
-4.976752 49.910226 36.189151 174.657607 -33.102277 -6.370636 4.325377 19.212245 6.492291 0.441044 2.376844 0.613456 0.737984 3.899129 1.017378 3.671862 16.351948 4.745059 -1.453498 15.470512 2.070267 -3.466745 -6.977858 4.392426 4.195179 -4.940138 -6.530715 17.330590 -15.784878 -6.500150 55.337539 -41.777016 -51.198288 6.445478 7.844829 -16.858080 -10.570705 -6.157295 -0.821338 -9.407725 -19.155260 2.528067 -57.552856 -44.061507 43.834779 0.413513 -0.431334 1.407413 0.983077 -48.176949 7.972185 -79.361497 80.236309 -67.999673 -0.440686 -7.811828 -3.540889 -0.087525 0.981600 -0.047530 -11.683755 -51.757358 15.641063 166.613972 85.841192 157.413070 -4.236330 -9.876768 7.775360 -0.029856 -0.059310 -0.225765
-4.971397 49.922942 36.196469 174.646981 -33.040630 -6.316065 4.340587 19.264476 6.492921 0.441617 2.390397 0.614702 0.738843 3.920394 1.019211 3.667254 16.394299 4.740890 -1.463435 15.117830 2.001761 -3.477022 -7.635163 4.284297 4.237305 -5.086328 -6.576625 17.210649 -15.480182 -6.424302 55.566725 -42.048209 -51.490910 6.413662 7.801253 -17.031670 -10.601342 -6.208308 -0.870706 -9.196965 -18.973451 2.500556 -57.989905 -44.339711 44.269076 0.473638 -0.492331 1.618927 0.963750 -48.244675 7.955462 -79.348788 80.256890 -68.018381 -0.469905 -7.792837 -3.563688 -0.069755 0.954627 -0.041024 -11.565111 -51.813567 15.546187 166.357981 85.881554 157.177758 -4.259478 -9.858623 7.798800 -0.025629 -0.097375 -0.161832
-4.972226 49.930379 36.209274 174.664183 -32.914995 -6.246212 4.310805 19.257464 6.450940 0.442276 2.401508 0.615081 0.739857 3.937767 1.019694 3.664304 16.429348 4.733238 -1.469274 14.762058 1.933299 -3.479457 -8.298526 4.174640 4.407666 -5.139749 -6.578722 16.992313 -15.231171 -6.418127 55.778716 -42.291265 -51.774030 6.376222 7.751384 -17.197365 -10.637066 -6.263011 -0.916158 -8.982204 -18.778315 2.472417 -58.415517 -44.588410 44.702496 0.521007 -0.562882 1.793811 0.997540 -48.373144 7.852652 -79.352464 80.280077 -68.023421 -0.501525 -7.812078 -3.587063 -0.046588 0.963836 -0.031213 -11.469952 -51.936537 15.428375 165.878872 85.928064 156.702766 -4.274500 -9.830580 7.831365 -0.038104 -0.113316 -0.132502
-4.966922 49.941528 36.215647 174.660545 -32.826371 -6.200974 4.313781 19.278741 6.442022 0.442858 2.409954 0.614828 0.740704 3.950876 1.019196 3.662055 16.456337 4.723920 -1.469134 14.407274 1.866490 -3.470781 -8.960116 4.065584 4.520772 -5.217479 -6.594574 16.844003 -14.973431 -6.381628 55.968033 -42.499073 -52.034553 6.331196 7.695094 -17.349972 -10.669966 -6.312189 -0.950421 -8.769471 -18.579918 2.435292 -58.807253 -44.800082 45.130394 0.546321 -0.638711 1.890852 1.015106 -48.466283 7.807306 -79.363617 80.292777 -68.037608 -0.513381 -7.808384 -3.600930 -0.039859 0.952421 -0.028870 -11.418933 -52.011492 15.388556 165.726131 85.967162 156.541176 -4.300218 -9.802776 7.859676 -0.033866 -0.126573 -0.127198
-4.960997 49.951918 36.219483 174.650403 -32.738344 -6.156852 4.315371 19.270324 6.422193 0.448132 2.438467 0.621098 0.741102 3.959728 1.017813 3.659548 16.475246 4.713361 -1.465115 14.059298 1.802814 -3.455243 -9.609038 3.960279 4.596448 -5.302171 -6.614609 16.746848 -14.720423 -6.328494 56.128724 -42.669145 -52.265600 6.283897 7.633758 -17.486542 -10.695429 -6.372009 -0.965988 -8.562594 -18.366751 2.378821 -59.236785 -44.995483 45.539446 0.576382 -0.648560 1.971891 1.016400 -48.562595 7.784830 -79.405694 80.303368 -68.094884 -0.529432 -7.797507 -3.616372 -0.022426 0.927964 -0.019319 -11.332440 -52.091197 15.319310 165.560639 86.003520 156.395258 -4.304010 -9.784780 7.874897 -0.038800 -0.136615 -0.118690
-4.952940 49.963526 36.216637 174.631312 -32.680825 -6.119054 4.339889 19.303941 6.422529 0.448021 2.441487 0.619784 0.733054 3.918345 1.004740 3.666803 16.532208 4.715458 -1.459819 13.723653 1.741922 -3.437221 -10.235092 3.858707 4.656839 -5.377557 -6.635307 16.671381 -14.486989 -6.269461 56.262665 -42.801968 -52.460498 6.236590 7.567720 -17.607989 -10.710548 -6.460025 -0.964212 -8.364576 -18.129552 2.300289 -59.711186 -45.179823 45.917743 0.612373 -0.583036 2.058989 1.025632 -48.632620 7.774536 -79.506518 80.313012 -68.202225 -0.552187 -7.780095 -3.628501 -0.007857 0.896221 -0.017266 -11.246770 -52.140639 15.266813 165.560217 86.029011 156.412350 -4.306181 -9.757248 7.880926 -0.040013 -0.171835 -0.079052
-4.945539 49.972563 36.211122 174.615172 -32.620168 -6.079773 4.368042 19.350662 6.425784 0.437865 2.398964 0.606469 0.731823 3.902177 0.999580 3.662151 16.532482 4.707875 -1.451655 13.444290 1.684345 -3.416805 -10.831551 3.758910 4.696107 -5.406654 -6.649017 16.617004 -14.275714 -6.208391 56.381275 -42.903087 -52.611881 6.189399 7.503987 -17.722803 -10.751597 -6.423242 -0.984925 -8.158970 -17.982065 2.255026 -60.092936 -45.315325 46.267934 0.601933 -0.554231 2.047156 1.008734 -48.715440 7.787452 -79.700313 80.318400 -68.419638 -0.598181 -7.749932 -3.654451 0.026511 0.847346 0.000118 -11.173172 -52.191183 15.216923 165.625842 86.053212 156.491196 -4.310815 -9.744469 7.882234 -0.036923 -0.184740 -0.061512
